<svg width="1374" height="164" fill="none" xmlns="http://www.w3.org/2000/svg"><path fill="#5CA5A5" d="M4 0h1366v156H4z"/><mask id="a" style="mask-type:luminance" maskUnits="userSpaceOnUse" x="4" y="0" width="1366" height="156"><path fill="#fff" d="M4 0h1366v156H4z"/></mask><g mask="url(#a)" fill-rule="evenodd" clip-rule="evenodd" fill="#63BABA"><path d="M846.501 563.441c51.433 51.426 134.816 51.426 186.249 0l396.66-396.603c51.44-51.436 51.44-134.84 0-186.276-51.43-51.426-134.82-51.426-186.25 0L1064.99 158.71c43.82-51.75 41.33-129.34-7.49-178.148-51.43-51.426-134.814-51.426-186.248 0L474.594 377.165c-51.444 51.436-51.444 134.839 0 186.276 51.433 51.426 134.816 51.426 186.25 0l178.172-178.148c-43.825 51.75-41.33 129.34 7.485 178.148ZM-98.41 117.441c51.434 51.426 134.816 51.426 186.25 0l396.659-396.603c51.443-51.436 51.443-134.839 0-186.276-51.434-51.426-134.817-51.426-186.25 0L-98.41-68.835c-51.444 51.436-51.444 134.84 0 186.276Zm444.692-71.824c51.434 51.426 134.816 51.426 186.25 0l396.659-396.603c51.443-51.437 51.443-134.84 0-186.276-51.434-51.427-134.817-51.426-186.25 0L346.282-140.659c-51.444 51.436-51.444 134.84 0 186.276Z"/></g></svg>